# xmcd
#
# Track frame offsets:
#	150
#	16084
#	35440
#
# Disc length: 709 seconds
#
# Revision: 1
# Processed by: cddbd v1.5.1PL0 Copyright (c) Steve Scherf et al.
# Submitted via: dBpowerAMP V4.0
#
DISCID=1602c303
DTITLE=Chesney Hawkes - Another Fine Mess (Single)
DYEAR=2005
DGENRE=Rock
TTITLE0=Another Fine Mess
TTITLE1=She's The One
TTITLE2=The One and Only (2005)
EXTD=
EXTT0=
EXTT1=
EXTT2=
PLAYORDER=
